<svg xmlns="http://www.w3.org/2000/svg" viewBox="0 0 100 100">
  <path d="M 50,50 m -40,0 a 40,40 0 1,0 80,0 a 40,40 0 1,0 -80,0" fill="none" stroke="black" stroke-width="10"/>
  <path d="M 50,50 m -20,0 a 20,20 0 1,0 40,0 a 20,20 0 1,0 -40,0" fill="black"/>
  <g transform="translate(50,50)">
    <path d="M 0,-45 l 10,0 l 5,10 l -10,0 z" fill="black" transform="rotate(0)"/>
    <path d="M 0,-45 l 10,0 l 5,10 l -10,0 z" fill="black" transform="rotate(60)"/>
    <path d="M 0,-45 l 10,0 l 5,10 l -10,0 z" fill="black" transform="rotate(120)"/>
    <path d="M 0,-45 l 10,0 l 5,10 l -10,0 z" fill="black" transform="rotate(180)"/>
    <path d="M 0,-45 l 10,0 l 5,10 l -10,0 z" fill="black" transform="rotate(240)"/>
    <path d="M 0,-45 l 10,0 l 5,10 l -10,0 z" fill="black" transform="rotate(300)"/>
  </g>
</svg>